<?xml version="1.0" encoding="iso-8859-1"?>
<!-- Generator: Adobe Illustrator 19.0.0, SVG Export Plug-In . SVG Version: 6.00 Build 0)  -->
<svg version="1.1" id="Capa_1" xmlns="http://www.w3.org/2000/svg" xmlns:xlink="http://www.w3.org/1999/xlink" x="0px" y="0px"
	 viewBox="0 0 463 463" style="enable-background:new 0 0 463 463;" xml:space="preserve">
<path d="M447.5,208H431v-24.5c0-8.547-6.953-15.5-15.5-15.5h-16c-0.169,0-0.333,0.02-0.5,0.025V167.5c0-8.547-6.953-15.5-15.5-15.5
	h-16c-8.547,0-15.5,6.953-15.5,15.5V224H111v-56.5c0-8.547-6.953-15.5-15.5-15.5h-16c-8.547,0-15.5,6.953-15.5,15.5v0.525
	C63.833,168.02,63.669,168,63.5,168h-16c-8.547,0-15.5,6.953-15.5,15.5V208H15.5C6.953,208,0,214.953,0,223.5v16
	c0,8.547,6.953,15.5,15.5,15.5H32v24.5c0,8.547,6.953,15.5,15.5,15.5h16c0.169,0,0.333-0.02,0.5-0.025v0.525
	c0,8.547,6.953,15.5,15.5,15.5h16c8.547,0,15.5-6.953,15.5-15.5V239h241v56.5c0,8.547,6.953,15.5,15.5,15.5h16
	c8.547,0,15.5-6.953,15.5-15.5v-0.525c0.167,0.005,0.331,0.025,0.5,0.025h16c8.547,0,15.5-6.953,15.5-15.5V255h16.5
	c8.547,0,15.5-6.953,15.5-15.5v-16C463,214.953,456.047,208,447.5,208z M15.5,240c-0.276,0-0.5-0.225-0.5-0.5v-16
	c0-0.275,0.224-0.5,0.5-0.5H32v17H15.5z M63.5,280h-16c-0.276,0-0.5-0.225-0.5-0.5v-96c0-0.275,0.224-0.5,0.5-0.5h16
	c0.276,0,0.5,0.225,0.5,0.5v96C64,279.775,63.776,280,63.5,280z M96,295.5c0,0.275-0.224,0.5-0.5,0.5h-16
	c-0.276,0-0.5-0.225-0.5-0.5v-16v-96v-16c0-0.275,0.224-0.5,0.5-0.5h16c0.276,0,0.5,0.225,0.5,0.5V295.5z M384,295.5
	c0,0.275-0.224,0.5-0.5,0.5h-16c-0.276,0-0.5-0.225-0.5-0.5v-128c0-0.275,0.224-0.5,0.5-0.5h16c0.276,0,0.5,0.225,0.5,0.5v16v96
	V295.5z M416,279.5c0,0.275-0.224,0.5-0.5,0.5h-16c-0.276,0-0.5-0.225-0.5-0.5v-96c0-0.275,0.224-0.5,0.5-0.5h16
	c0.276,0,0.5,0.225,0.5,0.5V279.5z M448,239.5c0,0.275-0.224,0.5-0.5,0.5H431v-17h16.5c0.276,0,0.5,0.225,0.5,0.5V239.5z"/>
<g>
</g>
<g>
</g>
<g>
</g>
<g>
</g>
<g>
</g>
<g>
</g>
<g>
</g>
<g>
</g>
<g>
</g>
<g>
</g>
<g>
</g>
<g>
</g>
<g>
</g>
<g>
</g>
<g>
</g>
</svg>
